<?xml version="1.0" standalone="no"?>
<!DOCTYPE svg PUBLIC "-//W3C//DTD SVG 20010904//EN"
 "http://www.w3.org/TR/2001/REC-SVG-20010904/DTD/svg10.dtd">
<svg version="1.0" xmlns="http://www.w3.org/2000/svg"
 width="640.000000pt" height="640.000000pt" viewBox="0 0 640.000000 640.000000"
 preserveAspectRatio="xMidYMid meet">

<g transform="translate(0.000000,640.000000) scale(0.100000,-0.100000)"
fill="#000000" stroke="none">
<path d="M0 3200 l0 -3200 3200 0 3200 0 0 3200 0 3200 -3200 0 -3200 0 0
-3200z m1877 1317 c48 -46 345 -321 658 -612 1046 -972 1122 -1043 1135 -1075
17 -41 0 -101 -37 -129 -25 -20 -83 -28 -116 -15 -8 3 -176 179 -373 390
l-359 385 -59 -63 c-288 -311 -516 -722 -557 -1007 -44 -309 97 -484 387 -483
349 2 829 271 1239 693 568 587 809 1240 548 1491 -21 20 -65 50 -98 65 -55
26 -69 28 -180 28 -106 0 -133 -4 -232 -33 -128 -37 -153 -34 -153 19 0 52 49
90 185 142 502 195 824 136 947 -173 20 -49 22 -73 22 -210 -1 -133 -4 -168
-26 -250 -40 -150 -77 -244 -159 -410 -385 -773 -1256 -1539 -1959 -1721 -271
-70 -484 -42 -617 83 -119 113 -162 280 -128 503 56 373 331 867 714 1285 l81
88 -307 328 c-168 181 -391 420 -496 532 -181 194 -208 232 -163 232 8 0 55
-37 103 -83z m1124 -413 c624 -560 647 -582 665 -616 41 -79 -55 -172 -133
-130 -32 17 -1027 1121 -1031 1143 -2 13 2 19 16 19 11 0 215 -176 483 -416z"/>
</g>
</svg>
