<svg version="1.2" xmlns="http://www.w3.org/2000/svg" viewBox="0 0 640 640" width="640" height="640">
	<title>logo</title>
	<style>
		.s0 { fill: #ffffff;stroke: #000000;stroke-miterlimit:10 } 
		.s1 { fill: #000000 } 
	</style>
	<path id="Shape 2" fill-rule="evenodd" class="s0" d="m520 145v382h-393v-382z"/>
	<g>
		<path id="Shape 1" fill-rule="evenodd" class="s1" d="m320 640c-177 0-320-143-320-320 0-177 143-320 320-320 177 0 320 143 320 320 0 177-143 320-320 320zm-142.6-460c-4.5 0-1.8 3.8 16.3 23.2 10.5 11.2 32.8 35.1 49.6 53.2l30.7 32.8-8.1 8.8c-38.3 41.8-65.8 91.2-71.4 128.5-3.4 22.3 0.9 39 12.8 50.3 13.3 12.5 34.6 15.3 61.7 8.3 70.3-18.2 157.4-94.8 195.9-172.1 8.2-16.6 11.9-26 15.9-41 2.2-8.2 2.5-11.7 2.6-25 0-13.7-0.2-16.1-2.2-21-12.3-30.9-44.5-36.8-94.7-17.3-13.6 5.2-18.5 9-18.5 14.2 0 5.3 2.5 5.6 15.3 1.9 9.9-2.9 12.6-3.3 23.2-3.3 11.1 0 12.5 0.2 18 2.8 3.3 1.5 7.7 4.5 9.8 6.5 26.1 25.1 2 90.4-54.8 149.1-41 42.2-89 69.1-123.9 69.3-29 0.1-43.1-17.4-38.7-48.3 4.1-28.5 26.9-69.6 55.7-100.7l5.9-6.3 35.9 38.5c19.7 21.1 36.5 38.7 37.3 39 3.3 1.3 9.1 0.5 11.6-1.5 3.7-2.8 5.4-8.8 3.7-12.9-1.3-3.2-8.9-10.3-113.5-107.5-31.3-29.1-61-56.6-65.8-61.2-4.8-4.6-9.5-8.3-10.3-8.3zm74.4 8c-1.4 0-1.8 0.6-1.6 1.9 0.4 2.2 99.9 112.6 103.1 114.3 7.8 4.2 17.4-5.1 13.3-13-1.8-3.4-4.1-5.6-66.5-61.6-26.8-24-47.2-41.6-48.3-41.6z"/>
	</g>
</svg>